<svg width="62" height="62" viewBox="0 0 62 62" fill="none" xmlns="http://www.w3.org/2000/svg">
<rect x="60.5312" y="60.5312" width="59.0625" height="59.0625" rx="29.5312" transform="rotate(-180 60.5312 60.5312)" fill="url(#paint0_linear)"/>
<g filter="url(#filter0_f)">
<rect x="61" y="61" width="60" height="60" rx="30" transform="rotate(-180 61 61)" fill="url(#paint1_linear)"/>
</g>
<rect x="58.875" y="58.875" width="55.75" height="55.75" rx="27.875" transform="rotate(-180 58.875 58.875)" fill="url(#paint2_linear)" stroke="#D95E05" stroke-width="0.5"/>
<g filter="url(#filter1_f)">
<rect x="59.125" y="59.125" width="56.25" height="56.25" rx="28.125" transform="rotate(-180 59.125 59.125)" fill="url(#paint3_linear)"/>
</g>
<path d="M34.022 23.0012H39.5V39H34.022V23.0012ZM23 38.9989V23H28.478V38.9989H23Z" fill="white"/>
<defs>
<filter id="filter0_f" x="0.5" y="0.5" width="61" height="61" filterUnits="userSpaceOnUse" color-interpolation-filters="sRGB">
<feFlood flood-opacity="0" result="BackgroundImageFix"/>
<feBlend mode="normal" in="SourceGraphic" in2="BackgroundImageFix" result="shape"/>
<feGaussianBlur stdDeviation="0.25" result="effect1_foregroundBlur"/>
</filter>
<filter id="filter1_f" x="2.375" y="2.375" width="57.25" height="57.25" filterUnits="userSpaceOnUse" color-interpolation-filters="sRGB">
<feFlood flood-opacity="0" result="BackgroundImageFix"/>
<feBlend mode="normal" in="SourceGraphic" in2="BackgroundImageFix" result="shape"/>
<feGaussianBlur stdDeviation="0.25" result="effect1_foregroundBlur"/>
</filter>
<linearGradient id="paint0_linear" x1="109.526" y1="112.882" x2="69.9275" y2="68.5852" gradientUnits="userSpaceOnUse">
<stop stop-color="#FD8211"/>
<stop offset="1" stop-color="#C98500"/>
</linearGradient>
<linearGradient id="paint1_linear" x1="110.5" y1="113.5" x2="73" y2="67.75" gradientUnits="userSpaceOnUse">
<stop stop-color="#FD6611"/>
<stop offset="1" stop-color="#C94800"/>
</linearGradient>
<linearGradient id="paint2_linear" x1="105.531" y1="108.344" x2="70.375" y2="65.4531" gradientUnits="userSpaceOnUse">
<stop stop-color="#A35800"/>
<stop offset="1" stop-color="#FD6611"/>
</linearGradient>
<linearGradient id="paint3_linear" x1="105.531" y1="108.344" x2="70.375" y2="65.4531" gradientUnits="userSpaceOnUse">
<stop stop-color="#A34400"/>
<stop offset="1" stop-color="#FD6611"/>
</linearGradient>
</defs>
</svg>
